<?xml version="1.0" standalone="no"?>
<!DOCTYPE svg PUBLIC "-//W3C//DTD SVG 20010904//EN"
 "http://www.w3.org/TR/2001/REC-SVG-20010904/DTD/svg10.dtd">
<svg version="1.0" xmlns="http://www.w3.org/2000/svg"
 width="1500.000000pt" height="1500.000000pt" viewBox="0 0 1500.000000 1500.000000"
 preserveAspectRatio="xMidYMid meet">
<metadata>
Created by potrace 1.14, written by Peter Selinger 2001-2017
</metadata>
<g transform="translate(0.000000,1500.000000) scale(0.100000,-0.100000)"
fill="#000000" stroke="none">
<path d="M12734 13315 c-2 -5 -5 -116 -7 -245 -5 -258 -6 -269 -44 -385 -66
-206 -174 -363 -336 -492 -115 -92 -296 -178 -418 -198 -24 -4 -53 -10 -64
-13 -11 -3 -1435 -7 -3164 -8 l-3145 -3 -693 -693 -694 -694 0 -849 c0 -468 0
-858 0 -868 1 -16 12 -17 124 -15 l122 3 1 200 c2 228 6 282 35 391 33 128 86
240 158 339 163 223 412 372 683 408 71 9 696 12 2688 11 l2595 0 55 -27 c94
-47 147 -142 137 -242 -9 -93 2 -79 -433 -530 -596 -619 -600 -623 -679 -691
-252 -213 -568 -351 -895 -391 -36 -4 -1197 -8 -2580 -8 l-2515 0 -100 28
c-407 112 -697 445 -750 862 -1 11 -3 119 -4 240 l-1 220 -52 -2 c-29 -1 -87
-2 -128 -2 l-75 -1 2 -832 c1 -458 2 -848 2 -866 1 -30 64 -96 695 -728 l695
-694 4013 0 4013 1 80 -21 c319 -82 578 -351 639 -665 4 -16 9 -41 12 -55 2
-14 5 -72 6 -130 2 -273 -123 -521 -352 -701 -48 -37 -218 -125 -260 -133 -14
-3 -43 -10 -65 -15 -72 -17 -129 -23 -210 -21 -44 1 -1841 3 -3992 3 -2152 1
-3913 4 -3913 7 0 7 80 91 344 363 121 126 252 261 290 300 38 40 164 170 280
290 116 120 212 222 214 226 1 4 -108 7 -244 7 l-246 -1 -110 -115 c-61 -63
-208 -216 -327 -339 -119 -123 -245 -253 -280 -290 -35 -36 -122 -127 -193
-201 -72 -74 -467 -473 -879 -886 l-748 -751 0 -865 0 -866 125 0 124 0 0 36
c4 343 7 449 12 457 4 6 9 31 13 55 17 113 99 294 183 403 164 215 390 349
662 394 19 3 1928 6 4243 7 l4207 1 695 695 694 695 1 1245 0 1245 -697 698
-696 697 -720 0 -719 0 -40 22 c-79 45 -113 155 -72 232 11 19 116 134 234
256 118 122 244 252 279 288 35 37 168 175 296 307 128 132 251 260 275 285
23 25 147 153 274 284 127 132 290 300 361 375 72 75 376 383 677 686 l548
550 -3 865 -2 865 -119 0 c-70 0 -120 -4 -122 -10z"/>
</g>
</svg>
