<svg viewBox="0 0 1872 360" xmlns="http://www.w3.org/2000/svg">
  <g>
    <path d="M1168.46 297.319H1177.08V319.263H1185.32V297.319H1193.94V289.968H1168.46V297.319Z" fill="black" />
    <path
      d="M1214.72 301.078C1214.01 303.897 1213.51 305.997 1213.23 307.324C1213.23 305.997 1212.46 303.897 1211.74 301.078L1208.98 290.023H1196.37V319.263H1204.17V310.972C1204.17 305.445 1204.17 301.078 1204.17 297.319C1204.78 299.696 1205.33 301.852 1205.88 303.786L1210.14 319.263H1216.77L1221.03 303.786C1221.58 301.852 1222.13 299.696 1222.74 297.319C1222.74 301.078 1222.46 305.61 1222.46 310.972V319.263H1230.31V290.023H1217.71L1214.72 301.078Z"
      fill="black"
    />
    <path
      d="M417.879 81.1976C417.879 72.9149 421.17 64.9715 427.027 59.1148C432.883 53.2581 440.827 49.9678 449.11 49.9678H459.667V42.2294H406.216L363.157 85.2326V278.692C363.157 282.798 362.347 286.863 360.775 290.656C359.202 294.448 356.896 297.894 353.99 300.794C351.084 303.695 347.635 305.994 343.84 307.56C340.044 309.126 335.977 309.929 331.872 309.922H321.314V317.66H374.765L417.824 274.602L417.879 81.1976Z"
      fill="black"
    />
    <path
      d="M339.002 251.773V198.323L295.998 155.32H253.436C252.258 155.447 251.071 155.191 250.049 154.592C249.027 153.993 248.225 153.081 247.761 151.991C247.296 150.901 247.194 149.691 247.469 148.539C247.745 147.387 248.383 146.354 249.291 145.592L308.822 83.9613L339.002 53.7264V0.276367H331.319V10.8337C331.319 19.1164 328.028 27.0598 322.171 32.9165C316.315 38.7733 308.371 42.0636 300.088 42.0636H109.389L66.3853 85.0668V138.517H74.0686V127.96C74.0686 123.854 74.8782 119.788 76.4511 115.996C78.024 112.203 80.3294 108.758 83.2353 105.857C86.1412 102.956 89.5904 100.657 93.3858 99.091C97.1813 97.5248 101.248 96.7223 105.354 96.7296H262.943C264.457 96.7093 265.942 97.1397 267.21 97.966C268.479 98.7924 269.472 99.9773 270.065 101.37C270.658 102.763 270.822 104.3 270.539 105.787C270.255 107.274 269.535 108.643 268.471 109.719L240.225 139.014C235.269 144.155 229.327 148.243 222.755 151.036C216.183 153.828 209.116 155.266 201.975 155.265H55.5514C47.2686 155.265 39.325 151.975 33.4682 146.118C27.6114 140.261 24.321 132.318 24.321 124.035V113.478H16.5824V166.928L59.5864 209.931H300.088C303.919 209.408 307.817 209.712 311.521 210.821C315.225 211.93 318.648 213.819 321.56 216.361C324.473 218.903 326.808 222.04 328.408 225.559C330.007 229.079 330.835 232.9 330.835 236.767C330.835 240.633 330.007 244.454 328.408 247.974C326.808 251.493 324.473 254.629 321.56 257.172C318.648 259.714 315.225 261.603 311.521 262.712C307.817 263.821 303.919 264.125 300.088 263.602H58.3152L93.9121 226.789H78.5458L41.622 264.984L-0.00012207 306.605V360.111H7.73852V349.498C7.73852 341.215 11.0289 333.272 16.8857 327.415C22.7425 321.558 30.6861 318.268 38.9689 318.268H295.998L339.002 275.265V251.773Z"
      fill="black"
    />
    <path
      d="M452.758 138.351H460.496V127.794C460.496 119.511 463.787 111.568 469.644 105.711C475.5 99.854 483.444 96.5638 491.727 96.5638H694.089C694.918 96.5582 695.73 96.8051 696.416 97.2716C697.102 97.7381 697.63 98.4022 697.93 99.1757C698.23 99.9493 698.287 100.796 698.095 101.603C697.903 102.41 697.469 103.139 696.853 103.694L658.989 138.904C647.654 149.51 632.725 155.434 617.201 155.486H495.817L452.813 198.489V240.719H460.552V241.216C460.552 232.933 463.842 224.99 469.699 219.133C475.556 213.276 483.499 209.986 491.782 209.986H682.481L725.485 166.928V124.643H717.747V124.146C717.754 128.251 716.951 132.318 715.385 136.114C713.819 139.909 711.52 143.358 708.619 146.264C705.718 149.17 702.273 151.475 698.48 153.048C694.688 154.621 690.622 155.431 686.516 155.431H667.17C666.363 155.428 665.576 155.185 664.909 154.731C664.243 154.277 663.728 153.633 663.43 152.884C663.133 152.134 663.067 151.313 663.241 150.525C663.415 149.738 663.821 149.021 664.406 148.466L763.901 53.6158V0.165771H756.218V10.7231C756.218 14.829 755.408 18.8945 753.835 22.6871C752.262 26.4797 749.957 29.9248 747.051 32.8255C744.145 35.7262 740.696 38.0255 736.901 39.5916C733.105 41.1578 729.038 41.9602 724.932 41.953L495.817 41.7319L452.813 84.7351L452.758 138.351Z"
      fill="black"
    />
    <path
      d="M1054.1 113.201H1046.41V123.759C1046.41 132.041 1043.12 139.985 1037.26 145.841C1031.41 151.698 1023.46 154.988 1015.18 154.988H974.996C973.978 154.921 972.999 154.572 972.166 153.982C971.334 153.391 970.681 152.582 970.28 151.643C969.88 150.705 969.747 149.673 969.896 148.664C970.046 147.654 970.472 146.706 971.127 145.924L1022.92 92.3076L1061.61 53.6158V0.165771H1054.1V10.7231C1054.07 14.829 1053.23 18.8889 1051.63 22.6705C1050.03 26.452 1047.7 29.881 1044.77 32.7612C1041.85 35.6413 1038.38 37.9161 1034.57 39.4554C1030.77 40.9947 1026.69 41.7683 1022.59 41.7319H804.252L761.137 84.9009V122.819H769.318C770.488 115.496 774.231 108.83 779.874 104.018C785.516 99.2057 792.69 96.5629 800.106 96.5638H986.438C987.832 96.5679 989.194 96.9804 990.356 97.7504C991.518 98.5204 992.429 99.6141 992.976 100.896C993.523 102.178 993.682 103.593 993.434 104.964C993.186 106.336 992.541 107.605 991.579 108.614L962.891 138.296C957.753 143.569 951.606 147.755 944.816 150.604C938.026 153.453 930.733 154.906 923.369 154.878H782.86L739.857 197.881V234.638C739.192 242.434 735.625 249.696 729.863 254.988C724.1 260.28 716.561 263.216 708.737 263.215H473.044L511.073 226.403H495.485L414.065 306.495V360H421.748V349.387C421.748 341.105 425.039 333.161 430.896 327.304C436.752 321.448 444.696 318.157 452.979 318.157H704.701L743.781 279.079L782.86 318.157H1010.87L1053.87 275.154L1054.1 113.201ZM1046.41 232.206C1046.41 236.312 1045.6 240.378 1044.03 244.17C1042.46 247.963 1040.15 251.408 1037.24 254.309C1034.34 257.209 1030.89 259.509 1027.09 261.075C1023.3 262.641 1019.23 263.443 1015.13 263.436H778.825C774.995 263.959 771.097 263.656 767.393 262.546C763.689 261.437 760.266 259.548 757.353 257.006C754.44 254.464 752.105 251.327 750.506 247.808C748.906 244.288 748.078 240.467 748.078 236.601C748.078 232.735 748.906 228.913 750.506 225.394C752.105 221.874 754.44 218.738 757.353 216.195C760.266 213.653 763.689 211.764 767.393 210.655C771.097 209.546 774.995 209.242 778.825 209.765H996.333H1011.64L1034.47 186.108C1035.43 185.142 1036.66 184.484 1037.99 184.216C1039.32 183.949 1040.71 184.085 1041.96 184.606C1043.22 185.128 1044.29 186.012 1045.05 187.145C1045.8 188.279 1046.2 189.611 1046.19 190.972L1046.41 232.206Z"
      fill="black"
    />
    <path
      d="M1607.62 282.285C1601.75 288.144 1593.8 291.436 1585.51 291.436C1577.22 291.436 1569.27 288.144 1563.4 282.285L1462.02 166.596L1536.31 92.363L1575.01 53.6711V0.2211H1567.27V10.7784C1567.27 19.0611 1563.98 27.0045 1558.12 32.8613C1552.26 38.718 1544.32 42.0083 1536.04 42.0083H1373.03V0.165771H1365.29V10.7231C1365.29 19.0058 1362 26.9492 1356.15 32.8059C1350.29 38.6627 1342.35 41.9529 1334.06 41.9529H1115.62L1072.72 84.8457V242.598V280.184C1072.72 288.467 1069.43 296.41 1063.58 302.267C1057.72 308.124 1049.78 311.414 1041.49 311.414H1030.93V319.097H1084.39L1127.39 276.094V208.549L1163.1 176.932C1169.01 173.56 1175.87 172.22 1182.62 173.118C1189.37 174.017 1195.64 177.104 1200.46 181.907L1319.69 318.102H1380.49L1418.3 280.295L1412.77 274.767L1405.31 282.229C1402.42 285.144 1398.97 287.457 1395.18 289.035C1391.38 290.614 1387.31 291.426 1383.2 291.426C1379.09 291.426 1375.02 290.614 1371.23 289.035C1367.43 287.457 1363.99 285.144 1361.09 282.229L1310.41 224.413L1365.07 176.877C1370.99 173.504 1377.84 172.165 1384.59 173.063C1391.34 173.962 1397.61 177.049 1402.44 181.852L1521.89 318.102H1582.69L1620.5 280.295L1614.97 274.767L1607.62 282.285ZM1242.03 146.145H1181.23L1180.95 146.421L1126.56 194.73C1122.55 198.074 1117.67 200.212 1112.49 200.896C1107.31 201.58 1102.04 200.782 1097.3 198.595C1092.56 196.409 1088.53 192.922 1085.69 188.54C1082.84 184.158 1081.3 179.06 1081.23 173.837V121.658C1082.64 114.586 1086.46 108.219 1092.03 103.644C1097.6 99.0679 1104.59 96.5659 1111.8 96.5638H1298.3C1299.69 96.5854 1301.04 97.014 1302.18 97.7963C1303.33 98.5786 1304.22 99.68 1304.74 100.964C1305.26 102.248 1305.4 103.657 1305.13 105.017C1304.86 106.377 1304.19 107.628 1303.22 108.614L1252.81 158.36L1242.03 146.145ZM1444.17 146.145H1383.37V146.421L1328.09 194.896C1324.9 197.695 1321.19 199.837 1317.17 201.2C1313.15 202.562 1308.9 203.118 1304.66 202.836C1300.43 202.553 1296.29 201.438 1292.48 199.554C1288.68 197.67 1285.28 195.054 1282.49 191.856L1260.38 166.596L1318.64 108.061C1322.23 104.468 1326.5 101.618 1331.19 99.6739C1335.89 97.7297 1340.92 96.7292 1346 96.7296H1500.16C1501.56 96.7337 1502.92 97.1462 1504.08 97.9163C1505.24 98.6862 1506.16 99.7799 1506.7 101.062C1507.25 102.344 1507.41 103.758 1507.16 105.13C1506.91 106.502 1506.27 107.77 1505.31 108.779L1454.84 158.526L1444.17 146.145Z"
      fill="black"
    />
    <path
      d="M1866.64 177.927C1862.41 177.771 1858.23 176.873 1854.31 175.274C1848.47 172.477 1843.22 168.594 1838.83 163.832C1835.36 160.303 1832.49 156.234 1830.32 151.783V83.4085L1787.32 41.7319H1611.43L1568.43 83.2981V179.475C1568.46 190.906 1570.85 202.209 1575.45 212.672C1580.05 223.135 1586.77 232.534 1595.18 240.276L1634.59 277.089L1678.15 318.102H1792.29L1830.38 280.682V266.753C1830.38 253.708 1830.38 230.769 1830.38 209.599C1830.88 208.129 1831.47 206.689 1832.15 205.288C1837.79 195.321 1846.72 187.622 1857.41 183.51C1860.99 182.432 1864.72 181.873 1868.46 181.852L1872.06 181.354V178.59C1870.23 178.369 1868.46 178.093 1866.64 177.927ZM1822.42 127.186V151.119C1822.33 151.423 1822.22 151.719 1822.09 152.004C1818.31 160.432 1812.09 167.536 1804.23 172.4C1800.02 175.132 1795.23 176.871 1790.25 177.485C1787.65 177.485 1785.11 177.983 1782.56 178.314V181.575L1791.8 182.626C1796.75 183.56 1801.43 185.58 1805.5 188.54C1812.14 192.98 1817.53 199.051 1821.15 206.172C1821.66 207.243 1822.08 208.352 1822.42 209.489V266.753H1722.92C1707.76 266.801 1693.14 261.092 1682.02 250.779L1593.58 168.31C1588.07 163.209 1583.66 157.03 1580.64 150.155C1577.61 143.28 1576.04 135.857 1576 128.346V124.643C1576.15 116.502 1579.52 108.751 1585.37 103.092C1591.23 97.4337 1599.09 94.3303 1607.23 94.4634H1791.24C1795.27 94.3975 1799.27 95.1259 1803.02 96.6071C1806.77 98.0882 1810.19 100.293 1813.08 103.096C1815.98 105.898 1818.29 109.243 1819.89 112.941C1821.5 116.638 1822.35 120.614 1822.42 124.643V127.186Z"
      fill="black"
    />
  </g>
</svg>
